<svg width="159" height="53" fill="none" xmlns="http://www.w3.org/2000/svg"><path fill-rule="evenodd" clip-rule="evenodd" d="M0 26.151v26.151l22.95.005c12.622.003 48.26.004 79.195.003l56.246-.003.138-26.153L158.667 0H0v26.151zm45.634.27v24.263H1.592V2.157h44.042V26.42zM10.057 11.887c-1.048 1.065-1.08 1.603-.928 15.685l.157 14.582 1.253 1.03c1.154.95 2.241 1.03 13.89 1.03 13.611 0 14.317-.142 14.299-2.869-.02-2.709-.276-2.775-12.044-3.062l-11.03-.27-.143-12.64c-.122-10.81-.269-12.78-1.011-13.614-1.15-1.292-3.1-1.236-4.443.128zm52.234 5.681c.178.47.323 3.866.323 7.549v6.696h6.118c4.973 0 6.177.152 6.427.815.17.449.013 1.177-.347 1.618-.981 1.202-13.89 1.163-15.08-.045-.681-.694-.833-2.29-.833-8.808 0-4.377.16-8.12.354-8.318.676-.687 2.718-.355 3.038.493zm31.248-.11c7.146 3.106 7.146 13.74 0 16.847-2.73 1.188-7.996.943-10.48-.488-3.152-1.813-4.527-4.224-4.527-7.936 0-3.85 1.434-6.245 4.76-7.953 2.76-1.416 7.565-1.637 10.247-.47zm24.75.202c2.472 1.281 3.194 2.552 2.089 3.674-.781.795-1.03.773-3.021-.259-5.172-2.681-11.232-.088-11.232 4.806 0 1.868 1.504 4.24 3.279 5.173 2.425 1.274 7.174.807 8.483-.836 1.761-2.21 1.305-2.658-2.874-2.83-3.708-.153-3.847-.207-3.847-1.507 0-1.322.088-1.35 4.585-1.502 5.362-.181 6.292.359 6.292 3.656 0 4.079-3.862 7.013-9.234 7.013-3.609 0-5.404-.67-7.623-2.845-4.396-4.31-2.901-12.218 2.786-14.736 2.37-1.05 8.13-.942 10.317.193zm23.409.297c2.708 1.455 4.754 4.865 4.754 7.924 0 3.06-2.046 6.47-4.754 7.925-4.641 2.494-11.806 1.164-14.582-2.707-.851-1.186-1.093-2.34-1.093-5.218 0-2.877.242-4.032 1.093-5.217 2.776-3.87 9.941-5.2 14.582-2.707zm-57.164 3.046c-2.086 1.293-2.97 4.005-2.212 6.794 1.462 5.38 10.9 5.39 12.646.013.862-2.653-.079-5.447-2.296-6.821-2.193-1.359-5.932-1.353-8.138.014zm47.591-.171c-2.136 1.54-2.618 2.474-2.636 5.11-.014 1.988.267 2.777 1.393 3.92 1.717 1.746 3.213 2.169 6.378 1.807 3.518-.403 5.213-2.285 5.213-5.788 0-3.826-1.729-5.512-5.947-5.797-2.333-.157-3.394.023-4.401.748z" fill="#fff"/></svg>