<svg width="60" height="60" fill="none" xmlns="http://www.w3.org/2000/svg"><path d="M35.625 11.25h-22.5a1.876 1.876 0 000 3.75h22.5a1.876 1.876 0 000-3.75zm-7.5 7.5h-15a1.876 1.876 0 000 3.75h15a1.876 1.876 0 000-3.75z" fill="#2352DE"/><path d="M41.25 0H7.5C3.364 0 0 3.364 0 7.5V45a1.873 1.873 0 003.075 1.44l10.729-8.94H41.25c4.136 0 7.5-3.364 7.5-7.5V7.5c0-4.136-3.364-7.5-7.5-7.5zM45 30c0 2.066-1.68 3.75-3.75 3.75H13.125c-.439 0-.863.154-1.2.435L3.75 40.999V7.5c0-2.066 1.68-3.75 3.75-3.75h33.75C43.32 3.75 45 5.434 45 7.5V30z" fill="#2352DE"/><path d="M52.5 15a1.876 1.876 0 000 3.75c2.07 0 3.75 1.684 3.75 3.75v31.721l-6.33-5.062a1.89 1.89 0 00-1.17-.409H22.5A3.754 3.754 0 0118.75 45v-1.875a1.876 1.876 0 00-3.75 0V45c0 4.136 3.364 7.5 7.5 7.5h25.59l8.861 7.091a1.893 1.893 0 001.988.225A1.88 1.88 0 0060 58.125V22.5c0-4.136-3.364-7.5-7.5-7.5z" fill="#2352DE"/></svg>