<svg width="60" height="60" fill="none" xmlns="http://www.w3.org/2000/svg"><path d="M37.246.81L35.258.065c-.256-.116-.508-.08-.753.11-.246.19-.412.473-.498.852L22.05 57.442c-.086.379-.059.736.08 1.07.139.336.347.561.625.678l1.988.743c.256.117.508.08.753-.109.246-.19.412-.474.497-.852l11.96-56.414a1.737 1.737 0 00-.081-1.072c-.14-.335-.347-.56-.625-.677zM19 10.743c0-.39-.109-.737-.327-1.037L17.041 7.45c-.218-.3-.468-.451-.75-.451-.284 0-.534.15-.752.451L.327 28.463A1.72 1.72 0 000 29.5c0 .391.109.737.327 1.037L15.539 51.55c.218.301.468.451.751.451s.533-.15.75-.45l1.633-2.254c.218-.3.327-.646.327-1.038 0-.39-.11-.736-.327-1.036L5.843 29.5l12.83-17.72c.218-.3.327-.646.327-1.037zm40.674 17.72L44.46 7.45c-.218-.3-.468-.451-.75-.451-.284 0-.534.15-.752.451l-1.632 2.255c-.218.3-.326.646-.326 1.037 0 .391.108.736.326 1.037l12.83 17.72-12.83 17.722c-.218.3-.326.646-.326 1.036 0 .392.108.737.326 1.038l1.632 2.253c.218.301.468.451.751.451s.533-.15.75-.45l15.215-21.012c.217-.3.326-.647.326-1.038 0-.39-.109-.737-.326-1.037z" fill="#2352DE"/></svg>