<svg width="92" height="80" fill="none" xmlns="http://www.w3.org/2000/svg"><path d="M45.92 31.21c8.604 0 15.605-7 15.605-15.605C61.525 7.001 54.524 0 45.919 0S30.314 7 30.314 15.605s7 15.606 15.605 15.606zm0-25.829c5.637 0 10.223 4.587 10.223 10.224 0 5.638-4.586 10.225-10.224 10.225-5.637 0-10.224-4.587-10.224-10.225 0-5.637 4.587-10.224 10.224-10.224zM77.489 31.21c5.44 0 9.865-4.425 9.865-9.865S82.93 11.48 77.49 11.48s-9.866 4.425-9.866 9.865 4.426 9.865 9.866 9.865zm0-14.35a4.49 4.49 0 014.484 4.485 4.49 4.49 0 01-4.484 4.484 4.49 4.49 0 01-4.485-4.484 4.49 4.49 0 014.485-4.484zm2.171 20.45h-4.162a12.198 12.198 0 00-11.066 7.058c-3.972-4.336-9.676-7.059-16.005-7.059h-5.015c-6.329 0-12.034 2.723-16.005 7.059a12.198 12.198 0 00-11.066-7.059h-4.162C5.464 37.31 0 42.74 0 49.415v19.59c0 2.897 2.367 5.255 5.276 5.255h16.453c.276 3.21 2.976 5.74 6.257 5.74h35.867c3.28 0 5.98-2.53 6.257-5.74h16.265c3.013 0 5.464-2.442 5.464-5.442V49.415c0-6.675-5.464-12.106-12.18-12.106zM5.38 49.414c0-3.708 3.05-6.725 6.798-6.725h4.162c3.748 0 6.798 3.017 6.798 6.725v1.842c-1.81 4.711-1.435 7.535-1.435 17.622H5.381V49.415zm59.372 24.303c0 .496-.404.9-.9.9H27.986a.902.902 0 01-.9-.9v-14.7c0-9.003 7.323-16.327 16.326-16.327h5.014c9.003 0 16.327 7.324 16.327 16.327v14.7zm21.704-4.9c0 .092 1.003.06-16.323.06 0-10.161.372-12.917-1.435-17.62v-1.843c0-3.708 3.05-6.725 6.799-6.725h4.161c3.749 0 6.798 3.017 6.798 6.725v19.403zM14.35 31.21c5.44 0 9.865-4.425 9.865-9.865S19.79 11.48 14.35 11.48s-9.866 4.425-9.866 9.865S8.91 31.21 14.35 31.21zm0-14.35a4.49 4.49 0 014.484 4.485 4.49 4.49 0 01-4.484 4.484 4.49 4.49 0 01-4.485-4.484 4.49 4.49 0 014.485-4.484z" fill="#2352DE"/></svg>