<svg width="80" height="80" fill="none" xmlns="http://www.w3.org/2000/svg"><path d="M48.869 15.418c3.075-2.484 3.771-5.14 3.813-6.93.104-4.356-3.336-7.543-3.728-7.892a2.357 2.357 0 00-3.133 3.522c.022.02 2.201 2.058 2.15 4.258-.029 1.172-.704 2.276-2.064 3.376-3.076 2.484-3.772 5.14-3.814 6.93-.104 4.356 3.336 7.543 3.728 7.892a2.36 2.36 0 003.332-.191 2.351 2.351 0 00-.19-3.323c-.619-.562-2.212-2.428-2.158-4.284.035-1.166.71-2.264 2.064-3.358zm-14.954 0c3.075-2.484 3.771-5.14 3.814-6.93.103-4.356-3.337-7.543-3.73-7.892a2.357 2.357 0 10-3.132 3.522c.022.02 2.201 2.058 2.15 4.258-.029 1.172-.704 2.276-2.064 3.376-3.076 2.484-3.772 5.14-3.814 6.93-.104 4.356 3.336 7.543 3.728 7.892a2.36 2.36 0 003.332-.191 2.351 2.351 0 00-.19-3.323c-.618-.562-2.212-2.428-2.158-4.284.035-1.166.71-2.264 2.064-3.358zm33.74 23.042h-2.79v-1.728a2.357 2.357 0 00-2.356-2.356H2.357A2.357 2.357 0 000 36.732v12.44c0 10.99 6.084 20.655 15.217 26.114H2.358a2.357 2.357 0 000 4.714H62.51a2.357 2.357 0 000-4.714H49.65c5.194-3.104 9.401-7.568 12.064-12.864h5.943c6.606 0 11.98-5.374 11.98-11.98 0-6.607-5.374-11.981-11.98-11.981zm-7.503 10.711c0 14.4-12.435 26.115-27.719 26.115S4.713 63.571 4.713 49.171V39.09h55.44v10.082zm7.503 8.538H63.6a29.33 29.33 0 001.266-8.538v-5.997h2.79c4.006 0 7.267 3.26 7.267 7.268 0 4.007-3.26 7.267-7.268 7.267zM18.96 15.418c3.076-2.484 3.772-5.14 3.815-6.93.103-4.356-3.336-7.543-3.73-7.892a2.357 2.357 0 10-3.132 3.522c.022.02 2.201 2.058 2.15 4.258-.028 1.172-.703 2.276-2.064 3.376-3.076 2.484-3.772 5.14-3.814 6.93-.103 4.356 3.336 7.543 3.729 7.892a2.351 2.351 0 003.327-.195 2.357 2.357 0 00-.195-3.327c-.022-.02-2.2-2.059-2.149-4.258.028-1.172.703-2.277 2.064-3.376z" fill="#2352DE"/></svg>