<svg width="81" height="80" fill="none" xmlns="http://www.w3.org/2000/svg"><path d="M71.686 0H27.765c-4.758 0-8.628 3.87-8.628 8.627v19.608H8.627C3.87 28.235 0 32.105 0 36.863V61.96c0 4.757 3.87 8.627 8.627 8.627h14.427l5.576 8.364a2.353 2.353 0 003.916 0l5.576-8.364h14.427c4.757 0 8.627-3.87 8.627-8.627V42.353h10.51c4.757 0 8.628-3.87 8.628-8.628V8.627C80.314 3.87 76.444 0 71.686 0zM56.471 61.96a3.926 3.926 0 01-3.922 3.922H36.863c-.787 0-1.522.394-1.958 1.048l-4.317 6.475-4.317-6.475a2.353 2.353 0 00-1.957-1.048H8.627a3.926 3.926 0 01-3.921-3.921V36.863a3.926 3.926 0 013.921-3.922h10.51v.784a8.57 8.57 0 00.947 3.922h-8.32a2.353 2.353 0 000 4.706h30.428l3.137 4.706H11.765a2.353 2.353 0 000 4.706h37.96c.787 0 1.522-.394 1.958-1.048l4.788-7.181V61.96zm19.137-28.235a3.926 3.926 0 01-3.922 3.922H56c-.787 0-1.521.393-1.958 1.048l-4.317 6.475-4.316-6.475a2.353 2.353 0 00-1.958-1.048H27.765a3.926 3.926 0 01-3.922-3.922V8.627a3.926 3.926 0 013.922-3.921h43.921a3.926 3.926 0 013.922 3.921v25.098z" fill="#2352DE"/><path d="M49.412 56.47H11.765a2.353 2.353 0 000 4.707h37.647a2.353 2.353 0 000-4.706zm11.632-40.087l-6.363-.925-2.845-5.766a2.353 2.353 0 00-4.22 0l-2.846 5.766-6.363.925a2.353 2.353 0 00-1.304 4.013l4.604 4.488-1.087 6.337a2.354 2.354 0 003.414 2.481l5.691-2.992 5.692 2.992a2.352 2.352 0 003.414-2.48l-1.087-6.338 4.604-4.488a2.352 2.352 0 00-1.304-4.013zm-7.47 5.995a2.353 2.353 0 00-.677 2.082l.49 2.858-2.566-1.35a2.354 2.354 0 00-2.19 0l-2.566 1.35.49-2.858a2.352 2.352 0 00-.677-2.082l-2.076-2.024 2.87-.417a2.352 2.352 0 001.77-1.287l1.284-2.6 1.283 2.6a2.353 2.353 0 001.772 1.287l2.87.417-2.078 2.024z" fill="#2352DE"/></svg>