<svg width="98" height="80" fill="none" xmlns="http://www.w3.org/2000/svg"><path d="M89.566 11.502h-20.48V7.838C69.086 3.516 65.57 0 61.248 0H35.9c-4.32 0-7.837 3.516-7.837 7.838v3.664H7.583C3.402 11.502 0 14.904 0 19.085v53.332C0 76.598 3.402 80 7.583 80h81.982c4.182 0 7.584-3.402 7.584-7.583V19.085c0-4.18-3.402-7.583-7.583-7.583zm-54.88-3.664c0-.67.545-1.215 1.215-1.215h25.347c.67 0 1.215.545 1.215 1.215v3.664H34.686V7.838zM7.584 18.125h81.982c.53 0 .96.43.96.96v17.377c-10.261 3.807-25.74 6.055-41.98 6.055-16.203 0-31.66-2.24-41.923-6.035V19.085c0-.53.43-.96.96-.96zm81.982 55.252H7.584a.961.961 0 01-.961-.96V43.498c9.393 3.1 21.742 5.036 35.2 5.521 0 .038-.005.076-.005.114v1.46a4.97 4.97 0 004.965 4.966h3.583a4.97 4.97 0 004.966-4.965v-1.46c0-.04-.006-.078-.006-.117 13.467-.49 25.814-2.431 35.2-5.536v28.936c0 .53-.43.96-.96.96z" fill="#2352DE"/></svg>