<svg width="44" height="46" fill="none" xmlns="http://www.w3.org/2000/svg"><g clip-path="url(#clip0_20948_41)"><path d="M43.32 4.492c-.537-.675-1.342-1.047-2.266-1.047-.503 0-1.035.109-1.583.323L2.227 18.381C.25 19.156-.016 20.32.001 20.944c.017.625.347 1.77 2.363 2.43l.036.011 7.726 2.272 4.178 12.28c.57 1.674 1.848 2.714 3.337 2.714.94 0 1.863-.405 2.671-1.17l4.779-4.522 6.93 5.736.003.002.066.055.018.014c.77.615 1.612.939 2.433.94 1.606 0 2.883-1.222 3.256-3.111l6.102-30.97c.245-1.243.04-2.356-.578-3.133zM12.71 25.226L27.615 17.4l-9.28 10.135a1.34 1.34 0 00-.313.59l-1.79 7.451-3.522-10.35zm5.855 12.306a2.43 2.43 0 01-.185.159l1.66-6.912 3.02 2.5-4.494 4.253zM41.373 7.1L35.27 38.07c-.059.296-.246.986-.729.986-.238 0-.538-.133-.844-.376l-7.854-6.5a.013.013 0 00-.004-.002l-4.673-3.868 13.421-14.657c.43-.47.47-1.188.093-1.704a1.267 1.267 0 00-1.618-.384l-22.074 11.59-7.83-2.302L40.39 6.244c.315-.124.534-.15.663-.15.078 0 .219.01.27.076.07.086.157.379.049.929z" fill="#2352DE"/></g><defs><clipPath id="clip0_20948_41"><path fill="#fff" d="M0 0h44v45.222H0z"/></clipPath></defs></svg>