<svg width="44" height="44" fill="none" xmlns="http://www.w3.org/2000/svg"><path d="M38.844 0H5.156A5.162 5.162 0 000 5.156v33.688A5.162 5.162 0 005.156 44h33.688A5.162 5.162 0 0044 38.844V5.156A5.162 5.162 0 0038.844 0zm1.718 38.844a1.72 1.72 0 01-1.718 1.718h-9.797V26.556h5.31l.877-5.328h-6.187V17.53c0-1.458 1.12-2.578 2.578-2.578h3.523V9.625h-3.523c-4.376 0-7.904 3.545-7.904 7.921v3.68h-5.159v5.329h5.159v14.008H5.156a1.72 1.72 0 01-1.718-1.72V5.157a1.72 1.72 0 011.718-1.718h33.688a1.72 1.72 0 011.718 1.718v33.688z" fill="#2352DE"/></svg>